<?xml version="1.0" standalone="no"?>
<!DOCTYPE svg PUBLIC "-//W3C//DTD SVG 20010904//EN"
 "http://www.w3.org/TR/2001/REC-SVG-20010904/DTD/svg10.dtd">
<svg version="1.0" xmlns="http://www.w3.org/2000/svg"
 width="1000.000000pt" height="1000.000000pt" viewBox="0 0 1000.000000 1000.000000"
 preserveAspectRatio="xMidYMid meet">
<metadata>
Created by potrace 1.14, written by Peter Selinger 2001-2017
</metadata>
<g transform="translate(0.000000,1000.000000) scale(0.100000,-0.100000)"
fill="#000000" stroke="none">
<path d="M3990 8588 c0 -6 -3 -8 -6 -5 -4 4 -24 -7 -44 -23 -21 -17 -41 -30
-44 -30 -8 0 -63 -37 -93 -64 -13 -11 -23 -15 -23 -10 0 5 -4 4 -8 -2 -4 -6
-110 -79 -237 -162 -126 -84 -237 -156 -245 -162 -104 -71 -425 -280 -431
-280 -4 0 -9 -3 -11 -7 -3 -7 -167 -120 -193 -133 -28 -14 -220 -145 -223
-152 -2 -4 -7 -8 -12 -8 -5 0 -73 -43 -151 -95 -78 -52 -146 -95 -151 -95 -4
0 -8 -5 -8 -11 0 -5 -4 -7 -10 -4 -5 3 -10 2 -10 -3 0 -5 -12 -15 -27 -23 -15
-8 -35 -21 -44 -29 -9 -8 -53 -37 -97 -65 -45 -27 -82 -52 -82 -55 0 -3 218
-5 485 -5 326 0 485 -3 485 -10 0 -11 -74 -227 -89 -260 -11 -24 -55 -146 -57
-160 -2 -5 -14 -39 -28 -74 -14 -36 -26 -69 -26 -74 0 -5 -6 -23 -14 -40 -8
-18 -29 -72 -46 -122 -18 -49 -37 -103 -43 -120 -7 -16 -12 -32 -13 -35 0 -3
-6 -18 -13 -35 -6 -16 -16 -41 -20 -55 -13 -36 -87 -238 -131 -360 -21 -58
-57 -157 -80 -220 -22 -63 -44 -122 -47 -130 -3 -8 -7 -19 -8 -25 -2 -5 -16
-46 -33 -90 -17 -44 -43 -114 -57 -155 -15 -41 -45 -124 -67 -185 -83 -228
-120 -331 -128 -357 -5 -15 -12 -33 -16 -40 -5 -7 -9 -17 -10 -23 -1 -5 -25
-73 -54 -150 -28 -77 -52 -144 -53 -150 -3 -11 -105 -289 -118 -320 -4 -11
-31 -85 -59 -165 -28 -79 -54 -149 -58 -155 -3 -5 -8 -17 -9 -26 -1 -8 -18
-57 -38 -108 -19 -51 -35 -99 -35 -107 0 -8 -4 -14 -8 -14 -4 0 -9 -11 -10
-24 l-2 -24 2555 0 c1979 -1 2555 2 2555 11 0 13 -56 172 -65 188 -4 5 -8 17
-10 26 -2 10 -20 63 -40 118 -20 55 -53 150 -74 210 -22 61 -62 175 -91 255
-28 80 -55 156 -60 170 -4 14 -22 63 -40 110 -17 47 -32 90 -33 95 -2 6 -6 16
-10 23 -5 6 -5 12 -1 12 3 0 2 6 -4 13 -5 6 -17 35 -25 62 -9 28 -28 82 -42
120 -15 39 -28 75 -29 80 -2 6 -6 17 -9 25 -3 8 -22 62 -42 120 -20 58 -41
116 -47 130 -5 14 -18 50 -28 80 -18 53 -65 188 -77 220 -3 8 -7 20 -9 25 -1
6 -16 48 -34 95 -17 47 -33 90 -34 95 -2 6 -6 17 -9 25 -3 8 -25 69 -48 135
-23 66 -47 134 -54 150 -7 17 -20 55 -30 85 -9 30 -20 64 -25 75 -5 11 -28 74
-50 140 -23 66 -46 129 -51 140 -4 11 -16 43 -25 70 -20 58 -36 103 -99 280
-26 72 -52 148 -60 170 -7 22 -31 90 -53 150 l-40 110 467 -1 c256 0 472 2
478 4 14 5 -13 28 -59 51 -15 8 -37 22 -47 33 -11 10 -24 18 -29 18 -4 0 -17
8 -28 18 -10 9 -31 23 -46 31 -15 8 -37 22 -47 33 -11 10 -23 18 -26 18 -3 0
-73 45 -155 100 -82 55 -154 100 -160 100 -5 0 -10 4 -10 8 0 4 -15 16 -32 27
-18 10 -37 23 -43 27 -5 5 -53 36 -106 71 -124 80 -116 75 -196 128 -38 25
-130 86 -204 135 -74 49 -135 92 -137 97 -2 4 -7 7 -12 7 -8 0 -373 239 -397
260 -7 5 -24 15 -38 22 -14 6 -25 15 -25 20 0 4 -4 8 -9 8 -5 0 -66 38 -135
85 -70 47 -129 85 -132 85 -4 0 -19 11 -36 25 -32 27 -48 32 -48 13z m91 -677
c3 0 6 -25 6 -53 2 -123 11 -287 16 -295 16 -26 -12 -34 -114 -31 -104 3 -104
3 -103 28 1 23 14 217 19 300 2 19 3 40 4 46 1 8 141 13 172 5z m41 -805 c4
-6 2 -16 -4 -23 -6 -7 -7 -13 -2 -13 5 0 10 -33 11 -73 1 -76 11 -305 18 -444
3 -60 1 -83 -8 -84 -7 -1 -76 -2 -153 -3 l-141 -1 3 46 c2 43 12 272 19 464 1
44 3 94 4 111 l1 31 123 -1 c71 0 125 -4 129 -10z m39 -1174 c3 -1 7 -35 9
-74 1 -40 4 -107 5 -148 2 -41 6 -154 10 -250 3 -96 8 -196 10 -222 l3 -48
-44 -1 c-24 0 -73 0 -109 0 -243 0 -244 0 -240 19 1 10 6 123 10 252 4 129 9
278 11 330 1 52 3 107 3 121 l1 25 163 -1 c89 -1 165 -3 168 -3z m50 -1356 c2
-43 3 -74 14 -336 4 -91 9 -214 11 -275 2 -60 5 -149 7 -197 2 -49 1 -89 -2
-89 -3 -1 -111 -2 -239 -3 -149 -1 -236 2 -240 9 -7 12 -9 155 -2 155 3 0 6
46 6 103 2 155 19 668 23 674 0 1 96 2 211 1 l210 0 1 -42z"/>
<path d="M8055 7104 c-22 -7 -52 -15 -67 -18 -15 -2 -31 -7 -36 -10 -4 -3 -19
-7 -33 -10 -13 -3 -55 -14 -94 -25 -38 -11 -119 -34 -180 -51 -183 -50 -189
-52 -215 -61 -14 -5 -36 -11 -50 -13 -14 -3 -113 -31 -220 -62 -107 -31 -202
-58 -210 -60 -184 -47 -360 -99 -360 -106 0 -4 12 -10 28 -14 15 -3 32 -7 37
-9 6 -1 12 -3 15 -3 3 0 23 -7 45 -15 37 -14 267 -88 290 -93 23 -5 67 -25 64
-29 -2 -2 -226 -226 -497 -498 l-492 -495 15 -29 c8 -15 29 -62 46 -103 17
-41 40 -93 50 -114 11 -22 19 -46 19 -53 0 -7 5 -13 10 -13 6 0 10 -6 10 -14
0 -7 12 -40 26 -72 43 -98 56 -128 69 -159 7 -16 25 -56 39 -88 14 -32 26 -60
26 -62 0 -2 13 -32 29 -67 16 -35 41 -92 56 -128 15 -36 40 -93 56 -128 16
-35 29 -66 29 -68 0 -5 10 -27 66 -152 13 -29 24 -54 24 -56 0 -2 12 -30 27
-62 15 -33 28 -61 29 -64 1 -6 25 -61 79 -185 24 -55 46 -109 50 -119 8 -27
13 -19 100 149 42 83 82 156 88 164 7 8 11 17 11 20 -2 9 8 31 109 226 51 99
146 284 211 410 65 127 123 236 128 243 6 6 7 12 3 12 -4 0 -3 6 3 13 10 11
100 187 270 522 31 61 59 112 64 113 4 2 8 9 8 15 0 11 56 126 77 159 4 7 8
19 9 26 2 8 9 21 16 30 7 10 47 83 88 165 47 94 80 147 90 147 8 0 44 -10 80
-21 36 -11 70 -22 75 -23 6 -1 37 -10 70 -20 33 -10 65 -19 70 -20 6 -2 51
-15 100 -31 92 -29 149 -42 129 -28 -6 5 -68 121 -137 258 -229 457 -283 563
-296 579 -8 9 -11 16 -8 16 5 0 -64 139 -97 197 -1 0 -19 -5 -41 -13z"/>
</g>
</svg>
